<svg xmlns="http://www.w3.org/2000/svg" viewBox="0 0 305.09 33.35"><title>名古屋勉強会らむだ | nagoya-benkyokai-lambda</title><g id="レイヤー_2" data-name="レイヤー 2"><g id="レイヤー_1-2" data-name="レイヤー 1"><path class="cls-1" d="M62.28,29.43a2.12,2.12,0,0,1-2.16,2.16H42.51a2.12,2.12,0,0,1-2.16-2.16V23l-1.64.35a1.67,1.67,0,0,1-1.41-.75A2.72,2.72,0,0,1,36.75,21a2.54,2.54,0,0,1,.42-1.46,1.48,1.48,0,0,1,1-.71q2-.32,3.5-.72A33.62,33.62,0,0,0,45,17l-2.16-1.79a1.13,1.13,0,0,1-.4-1A1.61,1.61,0,0,1,43.14,13a2.56,2.56,0,0,1,1.56-.53,2,2,0,0,1,1.15.35l3.08,2.36a36.44,36.44,0,0,0,3.34-2.36Q55,10.67,55,10.07c-.1-.12-.18-.17-.26-.17H46.54l-4.24,2.56a6.91,6.91,0,0,1-3.26,1.21,1.86,1.86,0,0,1-1.51-.74,2.62,2.62,0,0,1-.59-1.69,2.09,2.09,0,0,1,.36-1.2,1.57,1.57,0,0,1,.88-.68,11.67,11.67,0,0,0,2-.82,10.27,10.27,0,0,0,1.74-1.14,8.88,8.88,0,0,1,1.64-1.07,4.48,4.48,0,0,1,1.93-.52H57.75a2.9,2.9,0,0,1,2.18.88,3,3,0,0,1,.85,2.2,4.64,4.64,0,0,1-.19,1.28,3.09,3.09,0,0,1-.48,1,29.54,29.54,0,0,1-3.49,3.72,32.41,32.41,0,0,1-4.35,3.2h7.84a2.12,2.12,0,0,1,2.16,2.16ZM57.64,27V22.75a.43.43,0,0,0-.49-.49H45.48c-.35,0-.52.16-.52.49V27a.46.46,0,0,0,.52.52H57.15a.47.47,0,0,0,.35-.14A.51.51,0,0,0,57.64,27Z"/><path class="cls-1" d="M92.05,29.43a2.12,2.12,0,0,1-2.16,2.16H70.15A2.12,2.12,0,0,1,68,29.43V19.58a2.12,2.12,0,0,1,2.16-2.16h7.49V12.8h-4a1.55,1.55,0,0,1-1.21-.6,2.3,2.3,0,0,1-.52-1.56,2.28,2.28,0,0,1,.53-1.54,1.56,1.56,0,0,1,1.2-.62h4V6.72A1.72,1.72,0,0,1,78.3,5.4,2.54,2.54,0,0,1,80,4.82a2.52,2.52,0,0,1,1.71.59,1.72,1.72,0,0,1,.68,1.31V8.48h3.95a1.53,1.53,0,0,1,1.18.6,2.31,2.31,0,0,1,.52,1.56,2.28,2.28,0,0,1-.53,1.54,1.54,1.54,0,0,1-1.17.62H82.42v4.61h7.46a2.12,2.12,0,0,1,2.16,2.16Zm-4.58-2.71v-4.5a.43.43,0,0,0-.49-.49H73.06q-.52,0-.52.49v4.5a.46.46,0,0,0,.52.52H87a.47.47,0,0,0,.35-.14A.51.51,0,0,0,87.47,26.72Z"/><path class="cls-1" d="M118.56,11.16a2.12,2.12,0,0,1-2.16,2.16H102.6V18a20.3,20.3,0,0,1-.32,3.54,19.59,19.59,0,0,1-.86,3.29,1.64,1.64,0,0,1-.75.87,2.32,2.32,0,0,1-1.18.32A2.25,2.25,0,0,1,98,25.51a1.67,1.67,0,0,1-.63-1.35,2.31,2.31,0,0,1,.17-.86,12.31,12.31,0,0,0,.68-2.42,16.74,16.74,0,0,0,.25-3V8a2.12,2.12,0,0,1,2.16-2.16H116.4A2.12,2.12,0,0,1,118.56,8Zm-4.29-1.33V9.29a.43.43,0,0,0-.49-.49H103.12c-.35,0-.52.16-.52.49v1.07h11.18a.47.47,0,0,0,.35-.14A.5.5,0,0,0,114.27,9.84Zm8.93,6.25a1.56,1.56,0,0,1-.36,1.05,1.07,1.07,0,0,1-.82.42h-1l1.47,3.4.09.43a1.45,1.45,0,0,1-.6,1.21,2.27,2.27,0,0,1-1.41.46,2.06,2.06,0,0,1-1.05-.26,1.55,1.55,0,0,1-.65-.69l-.2-.52a16.32,16.32,0,0,1-3.57.75V24h4.67a1.09,1.09,0,0,1,.84.43,1.79,1.79,0,0,1,0,2.19,1.1,1.1,0,0,1-.84.43h-4.67v1.41h4.67a1.13,1.13,0,0,1,.85.45A1.63,1.63,0,0,1,121,30a1.69,1.69,0,0,1-.39,1.12,1.12,1.12,0,0,1-.85.46H105.6a1.12,1.12,0,0,1-.85-.45,1.67,1.67,0,0,1-.39-1.14,1.63,1.63,0,0,1,.39-1.11,1.13,1.13,0,0,1,.85-.45h5.25V27H105.6a1.1,1.1,0,0,1-.84-.43,1.79,1.79,0,0,1,0-2.19,1.09,1.09,0,0,1,.84-.43h5.25V22.6h-6.4a1.14,1.14,0,0,1-.87-.45,1.87,1.87,0,0,1,0-2.28,1.13,1.13,0,0,1,.87-.45h1.23l.74-1.87h-2a1.07,1.07,0,0,1-.82-.42,1.72,1.72,0,0,1,0-2.1,1.07,1.07,0,0,1,.82-.42H122a1.07,1.07,0,0,1,.82.42A1.56,1.56,0,0,1,123.21,16.09Zm-5.71,2.68L117,17.56h-6l-.81,1.87A28.18,28.18,0,0,0,117.5,18.77Z"/><path class="cls-1" d="M150,29.49a2.25,2.25,0,0,1-.5,1.51,1.48,1.48,0,0,1-1.14.59h-9.31a3.66,3.66,0,0,1-2.67-1,3.28,3.28,0,0,1-1-2.46V24h-1.21A10.68,10.68,0,0,1,133,28.18a7.09,7.09,0,0,1-2.64,2.69,1.4,1.4,0,0,1-.63.14,2.18,2.18,0,0,1-1.58-.69,2.21,2.21,0,0,1-.69-1.61,2.13,2.13,0,0,1,.69-1.47A7.69,7.69,0,0,0,130.32,24h-.17A2.12,2.12,0,0,1,128,21.85V14.39a2.12,2.12,0,0,1,2.16-2.16h5l1.27-2.45c0-.17-.11-.26-.32-.26h-2.42q-1.41,1.07-2.59,1.89a3.83,3.83,0,0,1-2.1.82,1.53,1.53,0,0,1-1.25-.65,2.27,2.27,0,0,1-.5-1.43,2,2,0,0,1,1.27-1.76,8.5,8.5,0,0,0,2-1.35,3.16,3.16,0,0,1,1.14-.89A3,3,0,0,1,133,5.83h5.48a2.13,2.13,0,0,1,1.64.69,2.32,2.32,0,0,1,.63,1.61,4.1,4.1,0,0,1-.4,1.9l-1.12,2.19h.49a2.12,2.12,0,0,1,2.16,2.16v7.46A2.12,2.12,0,0,1,139.72,24h-.32V26.7q0,.69.72.69h8.24a1.48,1.48,0,0,1,1.14.59A2.25,2.25,0,0,1,150,29.49Zm-16.54-9.25V16h-1.38q-.52,0-.52.49v3.26a.46.46,0,0,0,.52.52Zm4.84-.52V16.46a.43.43,0,0,0-.49-.49h-1.38v4.26h1.38a.47.47,0,0,0,.35-.14A.51.51,0,0,0,138.31,19.72Zm14.76,2.57a3.46,3.46,0,0,1-.89,2.42,3,3,0,0,1-2.36,1h-1.44a1.55,1.55,0,0,1-1.21-.61,2.35,2.35,0,0,1-.52-1.58,3.06,3.06,0,0,1,.36-1.6,1.09,1.09,0,0,1,1-.59h.4q.81,0,.81-1V12.28a.43.43,0,0,0-.49-.49h-1.3a20.3,20.3,0,0,1-.91,6.67Q145.57,21,144,21a2,2,0,0,1-1.4-.56,1.82,1.82,0,0,1-.59-1.37,1.49,1.49,0,0,1,.26-.92,7,7,0,0,0,1-2.31,15.92,15.92,0,0,0,.46-4.06h-.69A1.48,1.48,0,0,1,142,11.2a2.21,2.21,0,0,1-.5-1.48,2.18,2.18,0,0,1,.5-1.46,1.45,1.45,0,0,1,1.13-.59h.71V6.35a1.23,1.23,0,0,1,.51-1A2,2,0,0,1,145.61,5a1.93,1.93,0,0,1,1.26.42,1.23,1.23,0,0,1,.51,1V7.67h3.52a2.12,2.12,0,0,1,2.16,2.16Z"/><path class="cls-1" d="M166.87,25.54q0,3.46-1.46,4.91t-5,1.46H160a1.19,1.19,0,0,1-1-.58,2.61,2.61,0,0,1-.4-1.53,2.56,2.56,0,0,1,.4-1.5,1.2,1.2,0,0,1,1-.58h.46a2.91,2.91,0,0,0,2-.5,2.24,2.24,0,0,0,.53-1.69V23.73a.43.43,0,0,0-.49-.49h-2.19a2.12,2.12,0,0,1-2.16-2.16v-6.4a2.12,2.12,0,0,1,2.16-2.16h2.19a.47.47,0,0,0,.35-.14.51.51,0,0,0,.14-.37V10.44a.43.43,0,0,0-.49-.49h-.78a1.48,1.48,0,0,1-1.14-.59,2.2,2.2,0,0,1-.5-1.48,2.16,2.16,0,0,1,.5-1.46,1.48,1.48,0,0,1,1.14-.59h3.05A2.12,2.12,0,0,1,166.87,8v6.48a2.12,2.12,0,0,1-2.16,2.16h-2.16c-.35,0-.52.16-.52.49v1.53a.46.46,0,0,0,.52.52h2.16a2.12,2.12,0,0,1,2.16,2.16ZM184,30.64a1.26,1.26,0,0,1-.58,1.05,2.07,2.07,0,0,1-1.24.42,2,2,0,0,1-.86-.17,1.28,1.28,0,0,1-.78-.92l-.06-.37a9.58,9.58,0,0,1-2.16.72,14.08,14.08,0,0,1-2.77.23h-4a1.42,1.42,0,0,1-1.11-.56,2.17,2.17,0,0,1-.48-1.46,2.13,2.13,0,0,1,.48-1.43,1.42,1.42,0,0,1,1.11-.56H174v-3h-3.63a2.12,2.12,0,0,1-2.16-2.16V16.78a2.12,2.12,0,0,1,2.16-2.16H174V13.06h-5.1a1.48,1.48,0,0,1-1.11-.56,2.14,2.14,0,0,1-.5-1.48,2.19,2.19,0,0,1,.49-1.47A1.45,1.45,0,0,1,168.91,9h.26L170,6.41a1.71,1.71,0,0,1,.73-.85,2.32,2.32,0,0,1,1.28-.36,2.55,2.55,0,0,1,1.53.48A1.5,1.5,0,0,1,174.25,7l-.09.4L173.55,9h1.12q1.33,0,2.26-.09a11,11,0,0,0,1.89-.35l-.26-1.24a1.4,1.4,0,0,1,.63-1.18,2.3,2.3,0,0,1,1.38-.46q1.56,0,1.82,1.15l1.24,5.07a1.45,1.45,0,0,1-.66,1.22,2.38,2.38,0,0,1-1.42.48,2,2,0,0,1-1.17-.32,1.47,1.47,0,0,1-.61-.81v-.14a10.54,10.54,0,0,1-2.13.52v1.79h3.69a2.12,2.12,0,0,1,2.16,2.16v5.65a2.12,2.12,0,0,1-2.16,2.16h-3.69v2.94q.83-.09,1.18-.16a8.94,8.94,0,0,0,1-.27l-.09-.52a1.25,1.25,0,0,1,.59-1.05,2.18,2.18,0,0,1,1.28-.42,1.78,1.78,0,0,1,1.1.35,1.31,1.31,0,0,1,.55.81ZM174,21.16V18h-1.67q-.52,0-.52.49v2.13a.46.46,0,0,0,.52.52Zm5.85-.52V18.51a.43.43,0,0,0-.49-.49h-1.73v3.14h1.73a.47.47,0,0,0,.35-.14A.5.5,0,0,0,179.87,20.64Z"/><path class="cls-1" d="M214.8,22a2.08,2.08,0,0,1-.48,1.4,1.37,1.37,0,0,1-1.05.56h-2.65L213,29.32a1.92,1.92,0,0,1,.17.75,2,2,0,0,1-.75,1.56,2.6,2.6,0,0,1-1.73.63,2,2,0,0,1-2-1.15l-.37-.81A27.1,27.1,0,0,1,202,31.36q-3.83.26-12.74.26a1.55,1.55,0,0,1-1.21-.6,2.35,2.35,0,0,1-.52-1.59,2.28,2.28,0,0,1,.53-1.54,1.56,1.56,0,0,1,1.2-.62h1l1.53-3.34h-2.91a1.37,1.37,0,0,1-1.07-.55,2.12,2.12,0,0,1-.46-1.41,2.05,2.05,0,0,1,.48-1.37,1.37,1.37,0,0,1,1.05-.56h24.41a1.38,1.38,0,0,1,1.05.55A2,2,0,0,1,214.8,22Zm-1.12-9.4a2.66,2.66,0,0,1-.55,1.63,1.69,1.69,0,0,1-1.41.73l-.29,0a19.82,19.82,0,0,1-10-5.39.42.42,0,0,0-.35-.14.47.47,0,0,0-.35.14,17.11,17.11,0,0,1-4.29,3.21,24.83,24.83,0,0,1-5.73,2.18l-.32.06A1.65,1.65,0,0,1,189,14.2a2.74,2.74,0,0,1-.55-1.63,2.17,2.17,0,0,1,.4-1.33,1.59,1.59,0,0,1,1-.66,16.54,16.54,0,0,0,4.61-1.73,11.62,11.62,0,0,0,3.37-2.74,3.92,3.92,0,0,1,1.28-1A4.49,4.49,0,0,1,201,4.73a4.71,4.71,0,0,1,1.92.33,3.53,3.53,0,0,1,1.28,1,11.93,11.93,0,0,0,3.42,2.77,16,16,0,0,0,4.65,1.76,1.63,1.63,0,0,1,1,.68A2.14,2.14,0,0,1,213.67,12.57Zm-6.48,3.14a2.09,2.09,0,0,1-.48,1.4,1.37,1.37,0,0,1-1.05.56h-9.14a1.36,1.36,0,0,1-1.07-.55,2.12,2.12,0,0,1-.46-1.41,2.05,2.05,0,0,1,.48-1.37,1.37,1.37,0,0,1,1.05-.56h9.14a1.38,1.38,0,0,1,1.05.55A2,2,0,0,1,207.19,15.71Zm-.52,10.75-.52-1.18a1.68,1.68,0,0,1-.2-.81l.09-.55H197.3l-1.53,3.29q4.18,0,6.56-.17A33.83,33.83,0,0,0,206.67,26.46Z"/><path class="cls-1" d="M244.16,23.24a10.53,10.53,0,0,1-.86,4.06,11.91,11.91,0,0,1-2,3.23,1.32,1.32,0,0,1-1,.43,2.88,2.88,0,0,1-1.95-.85,2.49,2.49,0,0,1-.94-1.86,4.6,4.6,0,0,1,.79-2,5.21,5.21,0,0,0,.79-2.67,3.89,3.89,0,0,0-1.09-2.82,5,5,0,0,0-3.78-1.35,15.18,15.18,0,0,0-5.56,1A12.55,12.55,0,0,0,224.51,23a2.38,2.38,0,0,1-1.76.63,5,5,0,0,1-2.19-.49q-1.3-.63-1.3-1.64V14.94a1.34,1.34,0,0,1,.65-1.14,3,3,0,0,1,1.71-.45,2.93,2.93,0,0,1,1.69.46,1.34,1.34,0,0,1,.68,1.12v3.26a19.62,19.62,0,0,1,4.47-2.45,16.14,16.14,0,0,1,5.74-1,10.39,10.39,0,0,1,7.41,2.59A7.76,7.76,0,0,1,244.16,23.24Zm-8.5-14.06a2.85,2.85,0,0,1-.43,1.64,1.31,1.31,0,0,1-1.12.63h-6.34a1.33,1.33,0,0,1-1.1-.65,2.74,2.74,0,0,1-.46-1.63,2.86,2.86,0,0,1,.43-1.64,1.31,1.31,0,0,1,1.12-.63h6.34a1.33,1.33,0,0,1,1.1.65A2.74,2.74,0,0,1,235.66,9.17Z"/><path class="cls-1" d="M265.55,31.8H262a10.3,10.3,0,0,1-4.35-.66,3.3,3.3,0,0,1-1.53-1.9,3.82,3.82,0,0,1-2.71,1.12,4.09,4.09,0,0,1-3.69-1.88,8.46,8.46,0,0,1-1.07-4.62,9.14,9.14,0,0,1,1.64-5.8,5.09,5.09,0,0,1,5.07-1.82,3.45,3.45,0,0,1,.92.32v-3.9h-1.84a1.31,1.31,0,0,1-1.11-.65,2.86,2.86,0,0,1-.45-1.66,2.92,2.92,0,0,1,.43-1.67,1.31,1.31,0,0,1,1.12-.63h1.84V7.5a1.31,1.31,0,0,1,.65-1.11,3.43,3.43,0,0,1,3.36,0,1.31,1.31,0,0,1,.63,1.12V8h2a1.32,1.32,0,0,1,1.11.65,2.87,2.87,0,0,1,.45,1.66,2.92,2.92,0,0,1-.43,1.67,1.31,1.31,0,0,1-1.12.63h-2V20l-.69,4.41a2.57,2.57,0,0,0,.52,1.87,4.1,4.1,0,0,0,2.68.61h2.07a3.69,3.69,0,0,0,3.72-2.19A1.8,1.8,0,0,1,271,23.67a3.73,3.73,0,0,1,1.79.43,1.61,1.61,0,0,1,1,1.41q0,3.31-1.93,4.8T265.55,31.8Zm-9.31-10.17a1.88,1.88,0,0,0-.43-1,1.15,1.15,0,0,0-.92-.4,2,2,0,0,0-1.58.85,3.73,3.73,0,0,0-.66,2.35,2.35,2.35,0,0,0,.52,1.67,1.42,1.42,0,0,0,1.1.43,1.58,1.58,0,0,0,1.58-1.27ZM274,12.05a1.35,1.35,0,0,1-.81,1.24,3.45,3.45,0,0,1-1.64.43,2.35,2.35,0,0,1-1.33-.35,1.29,1.29,0,0,1-.6-.89L269.15,9a1.33,1.33,0,0,1,.78-1.22,3.54,3.54,0,0,1,1.7-.42,2.44,2.44,0,0,1,1.31.33,1.15,1.15,0,0,1,.59.88Z"/><path class="cls-1" d="M296.44,10a2.91,2.91,0,0,1-.43,1.67,1.31,1.31,0,0,1-1.12.63h-7.58a42.12,42.12,0,0,1-.35,5.5q-.35,2.62-1,5.53-.29,1.3-1.15,4.61-.29,1.13-1.93,1.12a3.68,3.68,0,0,1-1.82-.43,1.65,1.65,0,0,1-1-1.47l.06-.37a55.14,55.14,0,0,0,1.61-6.74,45.23,45.23,0,0,0,.69-7.75h-2.31a1.32,1.32,0,0,1-1.11-.65A2.86,2.86,0,0,1,278.6,10,2.92,2.92,0,0,1,279,8.34a1.31,1.31,0,0,1,1.12-.63h2.54V7.56a1.38,1.38,0,0,1,.71-1.17,3.1,3.1,0,0,1,1.77-.48,3,3,0,0,1,1.73.46,1.39,1.39,0,0,1,.66,1.18V7.7h7.32a1.31,1.31,0,0,1,1.11.65A2.86,2.86,0,0,1,296.44,10Zm4.35,19.14a3,3,0,0,1-.43,1.7,1.31,1.31,0,0,1-1.12.63h-4.06a10.14,10.14,0,0,1-5.65-1.34,4.12,4.12,0,0,1-2-3.59,7.24,7.24,0,0,1,.43-2.65,2,2,0,0,1,1.9-1.53,3.44,3.44,0,0,1,1.7.38,1.57,1.57,0,0,1,.86,1.44,3.07,3.07,0,0,1-.1.56,3,3,0,0,0-.1.68,1.13,1.13,0,0,0,.81,1.07,8.33,8.33,0,0,0,2.91.35h3.31a1.32,1.32,0,0,1,1.11.65A2.87,2.87,0,0,1,300.8,29.14Zm3.34-11.5a3,3,0,0,1-.43,1.7,1.31,1.31,0,0,1-1.12.63H291.89a1.31,1.31,0,0,1-1.11-.65,2.91,2.91,0,0,1-.45-1.69,2.91,2.91,0,0,1,.43-1.67,1.31,1.31,0,0,1,1.12-.63h10.69a1.32,1.32,0,0,1,1.11.65A2.86,2.86,0,0,1,304.14,17.65Zm-3.46-9.19a.89.89,0,0,1-.61.81,2.8,2.8,0,0,1-1.21.29A.9.9,0,0,1,298,9a2.67,2.67,0,0,1-.29-1.21.9.9,0,0,1,.58-.84,2.68,2.68,0,0,1,1.21-.29.92.92,0,0,1,.87.58A2.75,2.75,0,0,1,300.68,8.45Zm4.41,0a.87.87,0,0,1-.56.84,3,3,0,0,1-1.25.26.9.9,0,0,1-.84-.58,2.73,2.73,0,0,1-.29-1.24.9.9,0,0,1,.58-.83A2.73,2.73,0,0,1,304,6.61a1,1,0,0,1,.89.66A2.77,2.77,0,0,1,305.09,8.45Z"/><path class="cls-1" d="M30.42,33.35H23L15.1,17.78,7.36,33.35H0L11.55,10.88,6.07,0h7.32Z"/></g></g></svg>
